<?xml version="1.0" standalone="no"?>
<!DOCTYPE svg PUBLIC "-//W3C//DTD SVG 1.1//EN" "http://www.w3.org/Graphics/SVG/1.1/DTD/svg11.dtd" >
<svg xmlns="http://www.w3.org/2000/svg">
<metadata></metadata>
<defs>
<font id="kelveticaregular" horiz-adv-x="1149" >
<font-face units-per-em="2048" ascent="1638" descent="-410" />
<missing-glyph horiz-adv-x="546" />
<glyph unicode="&#xd;" horiz-adv-x="508" />
<glyph horiz-adv-x="0" />
<glyph horiz-adv-x="0" />
<glyph unicode=" "  horiz-adv-x="546" />
<glyph unicode="&#x09;" horiz-adv-x="546" />
<glyph unicode="&#xa0;" horiz-adv-x="546" />
<glyph unicode="A" horiz-adv-x="1135" d="M88 491q0 204 135 348q136 143 328 143q141 0 258 -83v83q6 1 13 1q23 0 66 -9q79 -16 125 -51v-923h-204v84q-117 -84 -258 -84q-192 0 -328 144q-135 144 -135 347zM293 491q0 -118 75 -202q76 -84 183 -84q106 0 182 84t76 202q0 119 -76 203t-182 84q-107 0 -183 -84 q-75 -84 -75 -203z" />
<glyph unicode="B" d="M136 0v1373q46 36 125 51q46 10 70 10q6 0 10 -1v-534q116 83 258 83q191 0 327 -143q135 -144 135 -348q0 -203 -135 -347q-136 -144 -327 -144q-142 0 -258 83v-83h-205zM341 491q0 -118 75 -202q76 -84 183 -84q106 0 182 84t76 202q0 119 -76 203t-182 84 q-107 0 -183 -84q-75 -84 -75 -203z" />
<glyph unicode="C" horiz-adv-x="989" d="M88 491q0 24 2 50q2 16 5 36q1 3 3 13q7 38 21 78q3 8 5 14q11 27 23 49q4 8 8 15q12 21 28 44q5 7 11 14q8 11 13 16q8 10 21 23l10 10q8 9 12 12q7 6 14 11q2 3 4 4q12 10 15 12q9 7 18 13q2 1 18 12h1q6 4 19 11q6 4 20 10q5 3 20 9q13 6 21 9q31 11 64 18q8 1 23 4 q10 1 21 2l5 1h9q7 1 10 1q6 1 18 1q14 0 27 -1q8 -1 22 -2q6 -1 17 -2q10 -2 16 -3q10 -2 23 -5q6 -1 21 -6q11 -3 29 -10q11 -3 23 -9q15 -7 23 -11q12 -6 22 -12q9 -5 22 -14q10 -7 21 -14q11 -8 20 -16q11 -9 16 -14q9 -9 22 -21q9 -10 17 -19q9 -10 16 -20l4 -4l1 -3 l22 -31l2 -3l8 -11l-1 -1q-83 -68 -188 -68h-13l-4 5l-1 1q-3 3 -9 10q-4 5 -9 9q-5 5 -10 9q-5 5 -10 9q-42 33 -95 46q-4 1 -13 3l-13 1q-4 1 -11 1q-11 1 -17 1q-66 0 -122 -35q-17 -10 -32 -22q-8 -7 -19 -18q-84 -85 -84 -212q0 -118 75 -202q76 -84 182 -84 q40 0 77 13q4 1 12 4q25 10 45 24q5 3 10 7q24 18 43 40q0 1 5 7h13q105 0 188 -69h1l-8 -11q0 -1 -2 -3l-22 -32q-2 -3 -5 -6q-7 -10 -16 -20q-5 -6 -17 -19q-10 -10 -22 -21q-5 -5 -16 -14q-9 -8 -20 -16q-10 -8 -21 -15q-16 -10 -22 -13q-10 -7 -22 -12q-20 -11 -46 -21 q-22 -8 -43 -14l-18 -4h-1q-8 -2 -19 -4q-5 -1 -8 -1q-11 -2 -17 -2q-14 -2 -22 -2q-13 -1 -27 -1q-12 0 -18 1q-13 0 -20 1h-4q-11 1 -21 3q-8 1 -19 3q-14 2 -26 6l-21 6q-13 4 -21 7q-11 4 -20 8h-2l-18 8q-12 6 -23 13q-1 0 -17 9q0 1 -1 1q-10 6 -15 10q-4 2 -21 14 q0 1 -15 13q-3 2 -4 3q-7 5 -14 12q-24 22 -43 44q-5 6 -13 17q-6 7 -11 14q-15 21 -28 44q-4 6 -8 14q-13 24 -23 49q-2 7 -5 14q-14 37 -21 78q-2 11 -3 13q-3 20 -5 36q-2 26 -2 50z" />
<glyph unicode="D" d="M88 491q0 204 136 348q135 143 327 143q141 0 258 -83v474q46 36 125 51q46 10 69 10q6 0 10 -1v-1433h-204v83q-117 -83 -258 -83q-192 0 -327 144q-136 144 -136 347zM293 491q0 -118 75 -202q76 -84 183 -84q106 0 182 84t76 202q0 119 -76 203t-182 84 q-107 0 -183 -84q-75 -84 -75 -203z" />
<glyph unicode="E" horiz-adv-x="1101" d="M88 491q0 40 6 82q28 175 156 292q130 117 300 117q42 0 85 -8q143 -28 245 -138q103 -111 127 -263q6 -42 6 -82t-6 -82h-704q24 -89 91 -145q68 -57 156 -59q21 -2 40 -2q45 0 79 10q27 8 62 25q106 -39 160 -140l-11 -8l-3 -2l-32 -20q-3 -2 -7 -4q-9 -6 -23 -13 q-6 -3 -9 -5q-2 -1 -14 -6q-9 -4 -28 -11q-9 -4 -20 -7q-9 -3 -25 -7q-7 -2 -11 -3l-4 -1q-5 -1 -9 -2t-5 -1q-4 -1 -10 -2q-7 -1 -11 -1q-11 -2 -25 -3q-13 -1 -21 -2h-73q-237 0 -375 205q-63 92 -81 204q-6 42 -6 82zM303 573h495q-41 154 -181 195q-32 10 -67 10 q-86 0 -155 -58q-68 -57 -92 -147z" />
<glyph unicode="F" horiz-adv-x="607" d="M136 0v941q0 41 7 82q32 208 198 326q4 3 6 4q105 73 231 79q10 1 16 1h52q1 -5 1 -13q0 -23 -10 -67q-12 -64 -38 -107q-8 -13 -12 -18h-2q-95 -6 -164 -79t-79 -177h222v-5q0 -98 -59 -160h-164v-807h-205z" />
<glyph unicode="G" d="M88 491q0 203 135 347q136 144 328 144q141 0 258 -84v84q4 1 10 1q23 0 69 -10q79 -15 125 -51v-841q0 -40 -6 -82q-18 -111 -81 -204q-48 -72 -117 -121q-116 -84 -258 -84h-263q-1 5 -1 13q0 24 10 68q14 77 50 124h204q86 0 155 58q68 56 92 146q11 41 11 82v3 q-1 0 -1 -2l-1 -4q-1 0 -1 3q-115 -81 -255 -81q-139 0 -256 81q-100 70 -156 185q-51 105 -51 225zM293 491q0 -21 2 -41q15 -113 96 -185q70 -61 160 -61q89 0 159 61q82 71 96 185q3 20 3 41q0 118 -76 202t-182 84q-107 0 -183 -84q-75 -84 -75 -202z" />
<glyph unicode="H" horiz-adv-x="1197" d="M136 0v1373q46 36 125 51q46 10 70 10q6 0 10 -1v-534q116 84 257 84q142 0 258 -84q205 -146 205 -408v-491h-205v491q0 119 -75 203q-76 84 -183 84q-105 0 -181 -83q-75 -82 -76 -200v-495h-205z" />
<glyph unicode="I" horiz-adv-x="416" d="M106 0v923q46 35 125 51q44 9 66 9q8 0 13 -1v-982h-204zM106 974v195q46 35 125 51q46 9 68 9q7 0 11 -1v-195q-4 1 -11 1q-22 0 -68 -9q-79 -16 -125 -51z" />
<glyph unicode="J" horiz-adv-x="473" d="M106 -233q2 0 9 8q48 52 48 123v1025q46 35 125 51q45 9 68 9q6 0 11 -1v-1084q0 -191 -152 -308q-84 35 -109 177zM163 973v195q46 36 125 51q46 10 69 10q6 0 10 -1v-195q-4 1 -10 1q-23 0 -69 -10q-79 -15 -125 -51z" />
<glyph unicode="K" horiz-adv-x="952" d="M136 2v1373q46 35 125 51q46 9 68 9q7 0 11 -1v-750l66 61l25 23l219 206q57 11 132 11t167 -11l-400 -375l409 -585q-66 -14 -128 -14q-63 0 -122 14l-310 443l-58 -53v-402h-204z" />
<glyph unicode="L" horiz-adv-x="485" d="M140 0v1373q46 36 125 51q46 10 70 10q6 0 10 -1v-1433h-205z" />
<glyph unicode="M" horiz-adv-x="1898" d="M126 0v923q46 36 125 51q44 9 67 9q8 0 13 -1v-83q116 84 257 84q142 0 258 -84q60 -42 103 -99q42 57 102 99v1q117 83 258 83t258 -84q205 -146 205 -408v-491h-205v491q0 119 -76 203q-75 84 -182 84q-103 0 -178 -79t-80 -193v-506h-205v502q-4 116 -78 196 q-75 80 -180 80q-103 0 -178 -79q-74 -79 -79 -193v-506h-205z" />
<glyph unicode="N" horiz-adv-x="1197" d="M136 0v923q46 35 125 51q44 9 66 9q8 0 13 -1v-83q117 84 258 84q142 0 258 -84q205 -146 205 -408v-491h-205v491q0 119 -75 203q-76 84 -183 84q-106 0 -182 -84t-76 -203v-491h-204z" />
<glyph unicode="O" horiz-adv-x="1101" d="M88 491q0 204 135 348q136 143 328 143q191 0 327 -143q135 -144 135 -348q0 -203 -135 -347q-136 -144 -327 -144q-192 0 -328 144q-135 144 -135 347zM293 491q0 -118 75 -202q76 -84 183 -84q106 0 182 84t76 202q0 119 -76 203t-182 84q-107 0 -183 -84 q-75 -84 -75 -203z" />
<glyph unicode="P" d="M136 -410v1332q46 35 125 51q44 9 67 9q8 0 13 -1v-83q116 83 258 83q191 0 327 -143q135 -144 135 -348q0 -203 -135 -347q-136 -144 -327 -144q-142 0 -258 83v-492h-205zM341 490q0 -119 75 -203q76 -83 183 -83q106 0 182 84q75 84 75 202q0 119 -75 203 q-76 84 -182 84q-107 0 -183 -84q-75 -84 -75 -202v-1z" />
<glyph unicode="Q" d="M88 491q0 203 136 347q135 144 327 144q141 0 257 -84v84q4 1 10 1q24 0 70 -10q79 -15 125 -51v-1332h-205v493q-116 -84 -257 -84q-192 0 -327 144q-136 144 -136 348zM293 491q0 -119 75 -203q76 -84 183 -84q106 0 182 84q75 83 75 202v1q0 119 -75 202 q-76 84 -182 84q-107 0 -183 -84q-75 -84 -75 -202z" />
<glyph unicode="R" horiz-adv-x="668" d="M136 0v923q46 36 125 51q46 10 69 10q6 0 10 -1v-84q23 16 44 28q15 8 30 15q24 11 47 19l33 9q3 1 9 2q5 1 8 2q15 3 35 5q27 4 52 4h41q1 -6 1 -14q0 -23 -9 -67q-15 -77 -51 -124q-4 -1 -6 -1q-1 -1 -2 -1q-8 0 -16 -2q-13 -3 -19 -4q-19 -6 -39 -15q-5 -2 -10 -5 q-6 -3 -13 -7t-14 -9q-10 -7 -20 -15q-7 -6 -14 -13l-14 -16q-8 -8 -14 -16q-5 -8 -7 -11q-4 -5 -7 -11q-10 -15 -19 -36q-4 -9 -7 -18q-4 -11 -8 -25l-4 -18v-2q-4 -15 -5 -32v-1q-1 -6 -1 -11q-1 -11 -1 -17v-492h-204z" />
<glyph unicode="S" horiz-adv-x="854" d="M56 209q13 10 31 21q79 49 154 53q2 -7 7 -17q0 -1 1 -2q1 -2 2 -3q43 -70 170 -70h13q69 1 110 39q25 30 25 57q0 54 -96 92q-48 20 -95 28q-94 20 -147 52q-112 63 -153 155q-19 42 -19 73v18q0 118 110 198q58 42 118 58q73 22 140 22q9 0 24 -1q215 -8 318 -156 q14 -19 23 -37q8 -17 7 -15q-19 -14 -31 -21q-79 -49 -155 -53q-1 7 -6 16q-1 2 -3 5q-44 70 -170 70h-11q-70 0 -112 -39q-25 -30 -25 -56q0 -54 95 -93q48 -19 96 -28q94 -20 147 -51q112 -63 153 -155q19 -42 19 -74v-18q0 -118 -111 -197q-58 -42 -117 -59 q-73 -21 -140 -21h-1q-8 0 -24 1q-214 8 -319 157q-28 40 -28 51z" />
<glyph unicode="T" horiz-adv-x="628" d="M136 388v782q78 59 199 59h6v-277h204v-5q0 -97 -59 -160h-145v-399q0 -71 48 -124q10 -8 20 -15l14 -10q8 -4 13 -7q5 -2 10 -5q20 -9 39 -14q6 -2 19 -4q8 -2 16 -3h2q2 0 6 -1q36 -48 51 -125q9 -43 9 -67q0 -7 -1 -13l-62 1q-114 6 -184 45q-33 19 -52 34 q-153 117 -153 308z" />
<glyph unicode="U" horiz-adv-x="1197" d="M136 492v491h205v-491q0 -119 75 -203q76 -84 183 -84t182 84q76 84 76 203v491h204v-923q-46 -35 -125 -51q-43 -9 -66 -9q-7 0 -13 1v83q-117 -84 -258 -84q-142 0 -258 84q-205 146 -205 408z" />
<glyph unicode="V" horiz-adv-x="916" d="M6 983h217l235 -656l235 656l217 -1l-8 -23l-335 -935l-3 -8l-3 -6q-6 -2 -17 -4q-23 -4 -55 -6h-62q-32 2 -55 6q-7 1 -18 4l-2 5l-3 9l-335 935z" />
<glyph unicode="W" horiz-adv-x="1473" d="M6 982h130q6 1 18 1l2 -1h67l4 -10l232 -644l169 615h217l170 -615l231 644l4 10h67l3 1q11 0 17 -1h130l-8 -23l-335 -935l-3 -8l-2 -3l-1 -3q-6 -2 -17 -4q-23 -4 -55 -6h-62q-32 2 -56 6q-11 2 -17 4l-1 3l-1 3l-3 8l-169 587l-169 -587l-3 -8l-2 -3l-1 -3 q-6 -2 -17 -4q-23 -4 -55 -6h-62q-32 2 -56 6q-11 2 -17 4l-1 3l-1 3l-3 8l-335 935z" />
<glyph unicode="X" horiz-adv-x="901" d="M-2 12l331 505l-299 456q80 13 141 13t102 -13l177 -271l178 271q42 13 102 13q61 0 140 -13h1l-299 -456l331 -505q-80 -12 -141 -12t-102 12l-210 319l-209 -319q-41 -12 -102 -12t-141 12z" />
<glyph unicode="Y" horiz-adv-x="916" d="M6 982l218 -1l226 -676l243 677h217l-7 -23l-485 -1358q-33 -11 -75 -11q-28 0 -60 5q-58 8 -78 19l137 386l-327 959z" />
<glyph unicode="Z" horiz-adv-x="962" d="M64 977v6h834v-151l-32 -38l-509 -606h481q47 -56 58 -155v-8q1 -13 1 -20v-5h-832v155l28 33l509 606h-478q-50 59 -59 163q-1 13 -1 20z" />
<glyph unicode="a" horiz-adv-x="1135" d="M88 491q0 204 135 348q136 143 328 143q141 0 258 -83v83q6 1 13 1q23 0 66 -9q79 -16 125 -51v-923h-204v84q-117 -84 -258 -84q-192 0 -328 144q-135 144 -135 347zM293 491q0 -118 75 -202q76 -84 183 -84q106 0 182 84t76 202q0 119 -76 203t-182 84q-107 0 -183 -84 q-75 -84 -75 -203z" />
<glyph unicode="b" d="M136 0v1373q46 36 125 51q46 10 70 10q6 0 10 -1v-534q116 83 258 83q191 0 327 -143q135 -144 135 -348q0 -203 -135 -347q-136 -144 -327 -144q-142 0 -258 83v-83h-205zM341 491q0 -118 75 -202q76 -84 183 -84q106 0 182 84t76 202q0 119 -76 203t-182 84 q-107 0 -183 -84q-75 -84 -75 -203z" />
<glyph unicode="c" horiz-adv-x="989" d="M88 491q0 24 2 50q2 16 5 36q1 3 3 13q7 38 21 78q3 8 5 14q11 27 23 49q4 8 8 15q12 21 28 44q5 7 11 14q8 11 13 16q8 10 21 23l10 10q8 9 12 12q7 6 14 11q2 3 4 4q12 10 15 12q9 7 18 13q2 1 18 12h1q6 4 19 11q6 4 20 10q5 3 20 9q13 6 21 9q31 11 64 18q8 1 23 4 q10 1 21 2l5 1h9q7 1 10 1q6 1 18 1q14 0 27 -1q8 -1 22 -2q6 -1 17 -2q10 -2 16 -3q10 -2 23 -5q6 -1 21 -6q11 -3 29 -10q11 -3 23 -9q15 -7 23 -11q12 -6 22 -12q9 -5 22 -14q10 -7 21 -14q11 -8 20 -16q11 -9 16 -14q9 -9 22 -21q9 -10 17 -19q9 -10 16 -20l4 -4l1 -3 l22 -31l2 -3l8 -11l-1 -1q-83 -68 -188 -68h-13l-4 5l-1 1q-3 3 -9 10q-4 5 -9 9q-5 5 -10 9q-5 5 -10 9q-42 33 -95 46q-4 1 -13 3l-13 1q-4 1 -11 1q-11 1 -17 1q-66 0 -122 -35q-17 -10 -32 -22q-8 -7 -19 -18q-84 -85 -84 -212q0 -118 75 -202q76 -84 182 -84 q40 0 77 13q4 1 12 4q25 10 45 24q5 3 10 7q24 18 43 40q0 1 5 7h13q105 0 188 -69h1l-8 -11q0 -1 -2 -3l-22 -32q-2 -3 -5 -6q-7 -10 -16 -20q-5 -6 -17 -19q-10 -10 -22 -21q-5 -5 -16 -14q-9 -8 -20 -16q-10 -8 -21 -15q-16 -10 -22 -13q-10 -7 -22 -12q-20 -11 -46 -21 q-22 -8 -43 -14l-18 -4h-1q-8 -2 -19 -4q-5 -1 -8 -1q-11 -2 -17 -2q-14 -2 -22 -2q-13 -1 -27 -1q-12 0 -18 1q-13 0 -20 1h-4q-11 1 -21 3q-8 1 -19 3q-14 2 -26 6l-21 6q-13 4 -21 7q-11 4 -20 8h-2l-18 8q-12 6 -23 13q-1 0 -17 9q0 1 -1 1q-10 6 -15 10q-4 2 -21 14 q0 1 -15 13q-3 2 -4 3q-7 5 -14 12q-24 22 -43 44q-5 6 -13 17q-6 7 -11 14q-15 21 -28 44q-4 6 -8 14q-13 24 -23 49q-2 7 -5 14q-14 37 -21 78q-2 11 -3 13q-3 20 -5 36q-2 26 -2 50z" />
<glyph unicode="d" d="M88 491q0 204 136 348q135 143 327 143q141 0 258 -83v474q46 36 125 51q46 10 69 10q6 0 10 -1v-1433h-204v83q-117 -83 -258 -83q-192 0 -327 144q-136 144 -136 347zM293 491q0 -118 75 -202q76 -84 183 -84q106 0 182 84t76 202q0 119 -76 203t-182 84 q-107 0 -183 -84q-75 -84 -75 -203z" />
<glyph unicode="e" horiz-adv-x="1101" d="M88 491q0 40 6 82q28 175 156 292q130 117 300 117q42 0 85 -8q143 -28 245 -138q103 -111 127 -263q6 -42 6 -82t-6 -82h-704q24 -89 91 -145q68 -57 156 -59q21 -2 40 -2q45 0 79 10q27 8 62 25q106 -39 160 -140l-11 -8l-3 -2l-32 -20q-3 -2 -7 -4q-9 -6 -23 -13 q-6 -3 -9 -5q-2 -1 -14 -6q-9 -4 -28 -11q-9 -4 -20 -7q-9 -3 -25 -7q-7 -2 -11 -3l-4 -1q-5 -1 -9 -2t-5 -1q-4 -1 -10 -2q-7 -1 -11 -1q-11 -2 -25 -3q-13 -1 -21 -2h-73q-237 0 -375 205q-63 92 -81 204q-6 42 -6 82zM303 573h495q-41 154 -181 195q-32 10 -67 10 q-86 0 -155 -58q-68 -57 -92 -147z" />
<glyph unicode="f" horiz-adv-x="607" d="M136 0v941q0 41 7 82q32 208 198 326q4 3 6 4q105 73 231 79q10 1 16 1h52q1 -5 1 -13q0 -23 -10 -67q-12 -64 -38 -107q-8 -13 -12 -18h-2q-95 -6 -164 -79t-79 -177h222v-5q0 -98 -59 -160h-164v-807h-205z" />
<glyph unicode="g" d="M88 491q0 203 135 347q136 144 328 144q141 0 258 -84v84q4 1 10 1q23 0 69 -10q79 -15 125 -51v-841q0 -40 -6 -82q-18 -111 -81 -204q-48 -72 -117 -121q-116 -84 -258 -84h-263q-1 5 -1 13q0 24 10 68q14 77 50 124h204q86 0 155 58q68 56 92 146q11 41 11 82v3 q-1 0 -1 -2l-1 -4q-1 0 -1 3q-115 -81 -255 -81q-139 0 -256 81q-100 70 -156 185q-51 105 -51 225zM293 491q0 -21 2 -41q15 -113 96 -185q70 -61 160 -61q89 0 159 61q82 71 96 185q3 20 3 41q0 118 -76 202t-182 84q-107 0 -183 -84q-75 -84 -75 -202z" />
<glyph unicode="h" horiz-adv-x="1197" d="M136 0v1373q46 36 125 51q46 10 70 10q6 0 10 -1v-534q116 84 257 84q142 0 258 -84q205 -146 205 -408v-491h-205v491q0 119 -75 203q-76 84 -183 84q-105 0 -181 -83q-75 -82 -76 -200v-495h-205z" />
<glyph unicode="i" horiz-adv-x="416" d="M106 0v923q46 35 125 51q44 9 66 9q8 0 13 -1v-982h-204zM106 974v195q46 35 125 51q46 9 68 9q7 0 11 -1v-195q-4 1 -11 1q-22 0 -68 -9q-79 -16 -125 -51z" />
<glyph unicode="j" horiz-adv-x="473" d="M106 -233q2 0 9 8q48 52 48 123v1025q46 35 125 51q45 9 68 9q6 0 11 -1v-1084q0 -191 -152 -308q-84 35 -109 177zM163 973v195q46 36 125 51q46 10 69 10q6 0 10 -1v-195q-4 1 -10 1q-23 0 -69 -10q-79 -15 -125 -51z" />
<glyph unicode="k" horiz-adv-x="952" d="M136 2v1373q46 35 125 51q46 9 68 9q7 0 11 -1v-750l66 61l25 23l219 206q57 11 132 11t167 -11l-400 -375l409 -585q-66 -14 -128 -14q-63 0 -122 14l-310 443l-58 -53v-402h-204z" />
<glyph unicode="l" horiz-adv-x="485" d="M140 0v1373q46 36 125 51q46 10 70 10q6 0 10 -1v-1433h-205z" />
<glyph unicode="m" horiz-adv-x="1898" d="M126 0v923q46 36 125 51q44 9 67 9q8 0 13 -1v-83q116 84 257 84q142 0 258 -84q60 -42 103 -99q42 57 102 99v1q117 83 258 83t258 -84q205 -146 205 -408v-491h-205v491q0 119 -76 203q-75 84 -182 84q-103 0 -178 -79t-80 -193v-506h-205v502q-4 116 -78 196 q-75 80 -180 80q-103 0 -178 -79q-74 -79 -79 -193v-506h-205z" />
<glyph unicode="n" horiz-adv-x="1197" d="M136 0v923q46 35 125 51q44 9 66 9q8 0 13 -1v-83q117 84 258 84q142 0 258 -84q205 -146 205 -408v-491h-205v491q0 119 -75 203q-76 84 -183 84q-106 0 -182 -84t-76 -203v-491h-204z" />
<glyph unicode="o" horiz-adv-x="1101" d="M88 491q0 204 135 348q136 143 328 143q191 0 327 -143q135 -144 135 -348q0 -203 -135 -347q-136 -144 -327 -144q-192 0 -328 144q-135 144 -135 347zM293 491q0 -118 75 -202q76 -84 183 -84q106 0 182 84t76 202q0 119 -76 203t-182 84q-107 0 -183 -84 q-75 -84 -75 -203z" />
<glyph unicode="p" d="M136 -410v1332q46 35 125 51q44 9 67 9q8 0 13 -1v-83q116 83 258 83q191 0 327 -143q135 -144 135 -348q0 -203 -135 -347q-136 -144 -327 -144q-142 0 -258 83v-492h-205zM341 490q0 -119 75 -203q76 -83 183 -83q106 0 182 84q75 84 75 202q0 119 -75 203 q-76 84 -182 84q-107 0 -183 -84q-75 -84 -75 -202v-1z" />
<glyph unicode="q" d="M88 491q0 203 136 347q135 144 327 144q141 0 257 -84v84q4 1 10 1q24 0 70 -10q79 -15 125 -51v-1332h-205v493q-116 -84 -257 -84q-192 0 -327 144q-136 144 -136 348zM293 491q0 -119 75 -203q76 -84 183 -84q106 0 182 84q75 83 75 202v1q0 119 -75 202 q-76 84 -182 84q-107 0 -183 -84q-75 -84 -75 -202z" />
<glyph unicode="r" horiz-adv-x="668" d="M136 0v923q46 36 125 51q46 10 69 10q6 0 10 -1v-84q23 16 44 28q15 8 30 15q24 11 47 19l33 9q3 1 9 2q5 1 8 2q15 3 35 5q27 4 52 4h41q1 -6 1 -14q0 -23 -9 -67q-15 -77 -51 -124q-4 -1 -6 -1q-1 -1 -2 -1q-8 0 -16 -2q-13 -3 -19 -4q-19 -6 -39 -15q-5 -2 -10 -5 q-6 -3 -13 -7t-14 -9q-10 -7 -20 -15q-7 -6 -14 -13l-14 -16q-8 -8 -14 -16q-5 -8 -7 -11q-4 -5 -7 -11q-10 -15 -19 -36q-4 -9 -7 -18q-4 -11 -8 -25l-4 -18v-2q-4 -15 -5 -32v-1q-1 -6 -1 -11q-1 -11 -1 -17v-492h-204z" />
<glyph unicode="s" horiz-adv-x="854" d="M56 209q13 10 31 21q79 49 154 53q2 -7 7 -17q0 -1 1 -2q1 -2 2 -3q43 -70 170 -70h13q69 1 110 39q25 30 25 57q0 54 -96 92q-48 20 -95 28q-94 20 -147 52q-112 63 -153 155q-19 42 -19 73v18q0 118 110 198q58 42 118 58q73 22 140 22q9 0 24 -1q215 -8 318 -156 q14 -19 23 -37q8 -17 7 -15q-19 -14 -31 -21q-79 -49 -155 -53q-1 7 -6 16q-1 2 -3 5q-44 70 -170 70h-11q-70 0 -112 -39q-25 -30 -25 -56q0 -54 95 -93q48 -19 96 -28q94 -20 147 -51q112 -63 153 -155q19 -42 19 -74v-18q0 -118 -111 -197q-58 -42 -117 -59 q-73 -21 -140 -21h-1q-8 0 -24 1q-214 8 -319 157q-28 40 -28 51z" />
<glyph unicode="t" horiz-adv-x="628" d="M136 388v782q78 59 199 59h6v-277h204v-5q0 -97 -59 -160h-145v-399q0 -71 48 -124q10 -8 20 -15l14 -10q8 -4 13 -7q5 -2 10 -5q20 -9 39 -14q6 -2 19 -4q8 -2 16 -3h2q2 0 6 -1q36 -48 51 -125q9 -43 9 -67q0 -7 -1 -13l-62 1q-114 6 -184 45q-33 19 -52 34 q-153 117 -153 308z" />
<glyph unicode="u" horiz-adv-x="1197" d="M136 492v491h205v-491q0 -119 75 -203q76 -84 183 -84t182 84q76 84 76 203v491h204v-923q-46 -35 -125 -51q-43 -9 -66 -9q-7 0 -13 1v83q-117 -84 -258 -84q-142 0 -258 84q-205 146 -205 408z" />
<glyph unicode="v" horiz-adv-x="916" d="M6 983h217l235 -656l235 656l217 -1l-8 -23l-335 -935l-3 -8l-3 -6q-6 -2 -17 -4q-23 -4 -55 -6h-62q-32 2 -55 6q-7 1 -18 4l-2 5l-3 9l-335 935z" />
<glyph unicode="w" horiz-adv-x="1473" d="M6 982h130q6 1 18 1l2 -1h67l4 -10l232 -644l169 615h217l170 -615l231 644l4 10h67l3 1q11 0 17 -1h130l-8 -23l-335 -935l-3 -8l-2 -3l-1 -3q-6 -2 -17 -4q-23 -4 -55 -6h-62q-32 2 -56 6q-11 2 -17 4l-1 3l-1 3l-3 8l-169 587l-169 -587l-3 -8l-2 -3l-1 -3 q-6 -2 -17 -4q-23 -4 -55 -6h-62q-32 2 -56 6q-11 2 -17 4l-1 3l-1 3l-3 8l-335 935z" />
<glyph unicode="x" horiz-adv-x="901" d="M-2 12l331 505l-299 456q80 13 141 13t102 -13l177 -271l178 271q42 13 102 13q61 0 140 -13h1l-299 -456l331 -505q-80 -12 -141 -12t-102 12l-210 319l-209 -319q-41 -12 -102 -12t-141 12z" />
<glyph unicode="y" horiz-adv-x="916" d="M6 982l218 -1l226 -676l243 677h217l-7 -23l-485 -1358q-33 -11 -75 -11q-28 0 -60 5q-58 8 -78 19l137 386l-327 959z" />
<glyph unicode="z" horiz-adv-x="962" d="M64 977v6h834v-151l-32 -38l-509 -606h481q47 -56 58 -155v-8q1 -13 1 -20v-5h-832v155l28 33l509 606h-478q-50 59 -59 163q-1 13 -1 20z" />
<glyph unicode="&#x2000;" horiz-adv-x="717" />
<glyph unicode="&#x2001;" horiz-adv-x="1435" />
<glyph unicode="&#x2002;" horiz-adv-x="717" />
<glyph unicode="&#x2003;" horiz-adv-x="1435" />
<glyph unicode="&#x2004;" horiz-adv-x="478" />
<glyph unicode="&#x2005;" horiz-adv-x="358" />
<glyph unicode="&#x2006;" horiz-adv-x="239" />
<glyph unicode="&#x2007;" horiz-adv-x="239" />
<glyph unicode="&#x2008;" horiz-adv-x="179" />
<glyph unicode="&#x2009;" horiz-adv-x="287" />
<glyph unicode="&#x200a;" horiz-adv-x="79" />
<glyph unicode="&#x202f;" horiz-adv-x="287" />
<glyph unicode="&#x205f;" horiz-adv-x="358" />
<glyph unicode="&#x25fc;" horiz-adv-x="985" d="M0 0v985h985v-985h-985z" />
</font>
</defs>
</svg>
